<svg width="52" height="33" viewBox="0 0 52 33" fill="none" xmlns="http://www.w3.org/2000/svg">
<path d="M5.54545 32H1V29.7857C1 25.6586 3.89721 22.1908 7.81818 21.2076M12.3636 13.9077C9.71547 12.9958 7.81818 10.5352 7.81818 7.64288C7.81818 4.75054 9.71547 2.28994 12.3636 1.37801M46.4545 32H51V29.7857C51 25.6586 48.1028 22.1908 44.1818 21.2076M39.6364 1.37801C42.2845 2.28994 44.1818 4.75054 44.1818 7.64288C44.1818 10.5352 42.2845 12.9958 39.6364 13.9077M21.4545 20.9286H30.5455C35.5662 20.9286 39.6364 24.894 39.6364 29.7857V32H12.3636V29.7857C12.3636 24.894 16.4338 20.9286 21.4545 20.9286ZM32.8182 7.64286C32.8182 11.3116 29.7656 14.2857 26 14.2857C22.2344 14.2857 19.1818 11.3116 19.1818 7.64286C19.1818 3.97411 22.2344 1 26 1C29.7656 1 32.8182 3.97411 32.8182 7.64286Z" stroke="white" stroke-width="2" stroke-linecap="round" stroke-linejoin="round"/>
</svg>
